HIERARCHY
ROOT Hips
{
	OFFSET 0.000000 0.000000 0.000000
	CHANNELS 6 Xposition Yposition Zposition Zrotation Yrotation Xrotation 
	JOINT LHipJoint
	{
		OFFSET 0.000000 0.000000 0.000000
		CHANNELS 3 Zrotation Yrotation Xrotation
		JOINT LeftUpLeg
		{
			OFFSET 1.363060 -1.794630 0.839290
			CHANNELS 3 Zrotation Yrotation Xrotation
			JOINT LeftLeg
			{
				OFFSET 2.448110 -6.726130 0.000000
				CHANNELS 3 Zrotation Yrotation Xrotation
				JOINT LeftFoot
				{
					OFFSET 2.562200 -7.039590 0.000000
					CHANNELS 3 Zrotation Yrotation Xrotation
					JOINT LeftToeBase
					{
						OFFSET 0.157640 -0.433110 2.322550
						CHANNELS 3 Zrotation Yrotation Xrotation
						End Site
						{
							OFFSET 0.000000 0.000000 0.000000
						}
					}
				}
			}
		}
	}
	JOINT RHipJoint
	{
		OFFSET 0.000000 0.000000 0.000000
		CHANNELS 3 Zrotation Yrotation Xrotation
		JOINT RightUpLeg
		{
			OFFSET -1.305520 -1.794630 0.839290
			CHANNELS 3 Zrotation Yrotation Xrotation
			JOINT RightLeg
			{
				OFFSET -2.542530 -6.985550 0.000000
				CHANNELS 3 Zrotation Yrotation Xrotation
				JOINT RightFoot
				{
					OFFSET -2.568260 -7.056230 0.000000
					CHANNELS 3 Zrotation Yrotation Xrotation
					JOINT RightToeBase
					{
						OFFSET -0.164730 -0.452590 2.363150
						CHANNELS 3 Zrotation Yrotation Xrotation
						End Site
						{
							OFFSET 0.000000 0.000000 0.000000
						}
					}
				}
			}
		}
	}
	JOINT LowerBack
	{
		OFFSET 0.000000 0.000000 0.000000
		CHANNELS 3 Zrotation Yrotation Xrotation
		JOINT Spine
		{
			OFFSET 0.028270 2.035590 -0.193380
			CHANNELS 3 Zrotation Yrotation Xrotation
			JOINT Spine1
			{
				OFFSET 0.056720 2.048850 -0.042750
				CHANNELS 3 Zrotation Yrotation Xrotation
				JOINT Neck
				{
					OFFSET 0.000000 0.000000 0.000000
					CHANNELS 3 Zrotation Yrotation Xrotation
					JOINT Neck1
					{
						OFFSET -0.054170 1.746240 0.172020
						CHANNELS 3 Zrotation Yrotation Xrotation
						JOINT Head
						{
							OFFSET 0.104070 1.761360 -0.123970
							CHANNELS 3 Zrotation Yrotation Xrotation
							End Site
							{
								OFFSET 0.000000 0.000000 0.000000
							}
						}
					}
				}
				JOINT LeftShoulder
				{
					OFFSET 0.000000 0.000000 0.000000
					CHANNELS 3 Zrotation Yrotation Xrotation
					JOINT LeftArm
					{
						OFFSET 3.362410 1.200890 -0.311210
						CHANNELS 3 Zrotation Yrotation Xrotation
						JOINT LeftForeArm
						{
							OFFSET 4.983000 -0.000000 -0.000000
							CHANNELS 3 Zrotation Yrotation Xrotation
							JOINT LeftHand
							{
								OFFSET 3.483560 -0.000000 -0.000000
								CHANNELS 3 Zrotation Yrotation Xrotation
								JOINT LeftFingerBase
								{
									OFFSET 0.000000 0.000000 0.000000
									CHANNELS 3 Zrotation Yrotation Xrotation
									JOINT LeftHandIndex1
									{
										OFFSET 0.715260 -0.000000 -0.000000
										CHANNELS 3 Zrotation Yrotation Xrotation
										End Site
										{
											OFFSET 0.000000 0.000000 0.000000
										}
									}
								}
								JOINT LThumb
								{
									OFFSET 0.000000 0.000000 0.000000
									CHANNELS 3 Zrotation Yrotation Xrotation
									End Site
									{
										OFFSET 0.000000 0.000000 0.000000
									}
								}
							}
						}
					}
				}
				JOINT RightShoulder
				{
					OFFSET 0.000000 0.000000 0.000000
					CHANNELS 3 Zrotation Yrotation Xrotation
					JOINT RightArm
					{
						OFFSET -3.136600 1.374050 -0.404650
						CHANNELS 3 Zrotation Yrotation Xrotation
						JOINT RightForeArm
						{
							OFFSET -5.241900 -0.000000 -0.000000
							CHANNELS 3 Zrotation Yrotation Xrotation
							JOINT RightHand
							{
								OFFSET -3.444170 -0.000000 -0.000000
								CHANNELS 3 Zrotation Yrotation Xrotation
								JOINT RightFingerBase
								{
									OFFSET 0.000000 0.000000 0.000000
									CHANNELS 3 Zrotation Yrotation Xrotation
									JOINT RightHandIndex1
									{
										OFFSET -0.622530 -0.000000 -0.000000
										CHANNELS 3 Zrotation Yrotation Xrotation
										End Site
										{
											OFFSET 0.000000 0.000000 0.000000
										}
									}
								}
								JOINT RThumb
								{
									OFFSET 0.000000 0.000000 0.000000
									CHANNELS 3 Zrotation Yrotation Xrotation
									End Site
									{
										OFFSET 0.000000 0.000000 0.000000
									}
								}
							}
						}
					}
				}
			}
		}
	}
}
MOTION
Frames: 4
Frame Time: 0.008333
14.308423 16.368619 10.130045 167.095886 68.061495 176.077841 -0.970467 8.587238 2.441489 -15.646879 -21.359918 -40.150342 -9.000957 12.185256 55.192349 -9.724590 -6.550325 6.284571 13.789664 -10.283215 -7.498664 1.799750 -3.780290 -1.379050 15.402143 -6.446170 -11.230569 -9.840606 -12.593515 21.765216 -1.557288 1.769123 -18.997969 -3.946693 -4.886890 -14.831044 -10.017802 -0.988989 5.961188 7.619863 1.424732 -5.951724 2.546024 -0.587214 2.886566 -2.553172 0.187918 -8.136298 2.146147 -0.052911 17.958185 -4.640540 0.417350 18.059096 3.138498 -6.601400 2.916320 -85.439777 -27.267918 12.878435 -4.205467 -30.037827 4.390621 2.162664 -0.244848 -0.003164 -0.000000 -0.000000 0.000000 -0.000000 0.000000 0.000000 0.000000 0.000000 0.000000 -2.722873 2.123787 2.749296 69.764184 -0.896658 -1.737490 10.357659 20.259397 -25.338492 0.094782 -16.729797 -2.385851 0.000000 -0.000001 0.000001 0.000000 0.000000 0.000000 0.000000 -0.000000 0.000000 
14.432012 16.380781 10.163724 167.111808 66.884402 176.057441 -0.929128 8.582953 2.506008 -16.172091 -21.471468 -39.970876 -9.237260 11.780128 53.049026 -10.068340 -5.984567 6.655870 14.488195 -10.601504 -7.992364 1.749847 -3.247734 -1.831757 15.385353 -8.017740 -9.824407 -9.375234 -12.208857 20.607950 -1.826488 1.202012 -18.876451 -3.770066 -5.211363 -14.776663 -10.051187 -1.091699 6.363360 7.514942 1.470918 -6.051676 2.420552 -0.494684 2.691294 -2.599587 0.175523 -8.080267 1.870589 -0.044017 17.864965 -4.134947 -0.213283 18.048029 3.066260 -6.615618 2.951858 -85.189107 -26.853477 12.016179 -4.358030 -29.170360 3.009731 3.940092 1.400581 -0.207769 -0.000000 -0.000000 0.000000 0.000000 0.000000 0.000000 -0.000000 0.000000 -0.000000 -2.738420 2.148230 2.780903 69.673128 -0.844931 -2.121066 10.113919 20.495502 -25.273001 -0.040296 -16.680422 -2.360491 0.000000 -0.000001 0.000001 0.000000 -0.000000 0.000000 0.000000 -0.000000 0.000000 
14.564234 16.393393 10.196456 167.171328 65.602627 176.150362 -0.858451 8.522519 2.489386 -16.669034 -21.832141 -39.602481 -9.207294 11.250999 50.755111 -9.467545 -6.155976 6.399143 13.669402 -9.342685 -7.935995 2.011540 -2.706110 -2.103458 14.950066 -9.592085 -8.721887 -9.013929 -12.582362 19.332349 -1.308967 1.536111 -18.620643 -3.650215 -5.621966 -14.972592 -10.371421 -1.201855 6.710090 7.655766 1.552890 -6.180123 2.298505 -0.395262 2.870221 -2.571278 0.123894 -8.341290 1.609288 -0.070847 17.791738 -3.668411 -0.874920 18.002671 3.017853 -6.666406 2.966229 -84.976820 -26.803505 10.905625 -4.699950 -28.109187 4.074485 3.555000 -0.869499 0.040824 -0.000000 -0.000000 0.000000 0.000000 -0.000000 0.000000 -0.000000 -0.000000 -0.000000 -2.627230 1.923838 2.678159 69.478460 -0.483317 -2.485364 10.093729 20.743991 -25.299842 0.481766 -16.847793 -2.455620 0.000000 -0.000001 0.000001 0.000000 -0.000000 0.000000 -0.000000 -0.000000 0.000000 
14.698784 16.401201 10.228153 167.177047 64.345216 176.197242 -0.758835 8.560881 2.446756 -17.479220 -21.987453 -39.156187 -8.798437 10.786946 48.421461 -9.943590 -6.385642 6.612702 13.396775 -8.801379 -7.993399 2.132777 -2.236813 -2.312770 14.657919 -10.712415 -7.532271 -8.617268 -13.073275 18.059728 -0.831725 1.617852 -18.421955 -3.556300 -5.884232 -15.056092 -10.661265 -1.331339 6.982809 7.733647 1.515071 -6.241082 2.284031 -0.447222 2.844941 -2.637805 0.089215 -8.383349 1.335963 -0.076920 17.689249 -3.322213 -1.493602 17.983319 2.907264 -6.517005 2.990380 -84.744140 -26.548464 10.057372 -4.809842 -27.079343 4.119220 3.437631 -1.071249 0.065713 -0.000000 -0.000000 0.000000 -0.000000 -0.000000 -0.000000 0.000000 0.000000 0.000000 -2.670843 2.061418 2.635040 69.314002 -0.285622 -2.376306 9.913729 21.073648 -25.516911 -1.394728 -16.618327 -2.170490 0.000000 -0.000001 0.000001 0.000000 0.000000 0.000000 -0.000000 -0.000000 0.000000 
